<?xml version="1.0" encoding="UTF-8" standalone="no"?>
<svg
   width="1000"
   height="250"
   overflow="hidden"
   version="1.1"
   id="svg1332"
   sodipodi:docname="SpExParser-logo.svg"
   inkscape:version="1.1.2 (b8e25be833, 2022-02-05)"
   xmlns:inkscape="http://www.inkscape.org/namespaces/inkscape"
   xmlns:sodipodi="http://sodipodi.sourceforge.net/DTD/sodipodi-0.dtd"
   xmlns="http://www.w3.org/2000/svg"
   xmlns:svg="http://www.w3.org/2000/svg">
  <sodipodi:namedview
     id="namedview1334"
     pagecolor="#505050"
     bordercolor="#eeeeee"
     borderopacity="1"
     inkscape:pageshadow="0"
     inkscape:pageopacity="0"
     inkscape:pagecheckerboard="0"
     showgrid="false"
     inkscape:zoom="1.6373941"
     inkscape:cx="420.79056"
     inkscape:cy="163.06398"
     inkscape:window-width="2520"
     inkscape:window-height="1574"
     inkscape:window-x="-11"
     inkscape:window-y="-11"
     inkscape:window-maximized="1"
     inkscape:current-layer="g4158"
     showguides="true"
     inkscape:guide-bbox="true">
    <sodipodi:guide
       position="607.93725,26.5781"
       orientation="0,-1"
       id="guide1596" />
  </sodipodi:namedview>
  <defs
     id="defs1254">
    <filter
       id="fx0"
       x="-128"
       y="-72"
       width="1536"
       height="864.00006"
       filterUnits="userSpaceOnUse"
       primitiveUnits="userSpaceOnUse">
      <feComponentTransfer
         color-interpolation-filters="sRGB"
         id="feComponentTransfer1088">
        <feFuncR
           type="discrete"
           tableValues="0 0"
           id="feFuncR1080" />
        <feFuncG
           type="discrete"
           tableValues="0 0"
           id="feFuncG1082" />
        <feFuncB
           type="discrete"
           tableValues="0 0"
           id="feFuncB1084" />
        <feFuncA
           type="linear"
           slope="0.4"
           intercept="0"
           id="feFuncA1086" />
      </feComponentTransfer>
      <feGaussianBlur
         stdDeviation="1.70758 1.70758"
         id="feGaussianBlur1090" />
    </filter>
    <filter
       id="fx1"
       x="-128"
       y="-72"
       width="1536"
       height="864.00006"
       filterUnits="userSpaceOnUse"
       primitiveUnits="userSpaceOnUse">
      <feComponentTransfer
         color-interpolation-filters="sRGB"
         id="feComponentTransfer1101">
        <feFuncR
           type="discrete"
           tableValues="0 0"
           id="feFuncR1093" />
        <feFuncG
           type="discrete"
           tableValues="0 0"
           id="feFuncG1095" />
        <feFuncB
           type="discrete"
           tableValues="0 0"
           id="feFuncB1097" />
        <feFuncA
           type="linear"
           slope="0.4"
           intercept="0"
           id="feFuncA1099" />
      </feComponentTransfer>
      <feGaussianBlur
         stdDeviation="1.70758 1.70758"
         id="feGaussianBlur1103" />
    </filter>
    <filter
       id="fx2"
       x="-128"
       y="-72"
       width="1536"
       height="864.00006"
       filterUnits="userSpaceOnUse"
       primitiveUnits="userSpaceOnUse">
      <feComponentTransfer
         color-interpolation-filters="sRGB"
         id="feComponentTransfer1114">
        <feFuncR
           type="discrete"
           tableValues="0 0"
           id="feFuncR1106" />
        <feFuncG
           type="discrete"
           tableValues="0 0"
           id="feFuncG1108" />
        <feFuncB
           type="discrete"
           tableValues="0 0"
           id="feFuncB1110" />
        <feFuncA
           type="linear"
           slope="0.4"
           intercept="0"
           id="feFuncA1112" />
      </feComponentTransfer>
      <feGaussianBlur
         stdDeviation="1.70758 1.70758"
         id="feGaussianBlur1116" />
    </filter>
    <filter
       id="fx3"
       x="-128"
       y="-72"
       width="1536"
       height="864.00006"
       filterUnits="userSpaceOnUse"
       primitiveUnits="userSpaceOnUse">
      <feComponentTransfer
         color-interpolation-filters="sRGB"
         id="feComponentTransfer1127">
        <feFuncR
           type="discrete"
           tableValues="0 0"
           id="feFuncR1119" />
        <feFuncG
           type="discrete"
           tableValues="0 0"
           id="feFuncG1121" />
        <feFuncB
           type="discrete"
           tableValues="0 0"
           id="feFuncB1123" />
        <feFuncA
           type="linear"
           slope="0.4"
           intercept="0"
           id="feFuncA1125" />
      </feComponentTransfer>
      <feGaussianBlur
         stdDeviation="1.70758 1.70758"
         id="feGaussianBlur1129" />
    </filter>
    <filter
       id="fx4"
       x="-128"
       y="-72"
       width="1536"
       height="864.00006"
       filterUnits="userSpaceOnUse"
       primitiveUnits="userSpaceOnUse">
      <feComponentTransfer
         color-interpolation-filters="sRGB"
         id="feComponentTransfer1140">
        <feFuncR
           type="discrete"
           tableValues="0 0"
           id="feFuncR1132" />
        <feFuncG
           type="discrete"
           tableValues="0 0"
           id="feFuncG1134" />
        <feFuncB
           type="discrete"
           tableValues="0 0"
           id="feFuncB1136" />
        <feFuncA
           type="linear"
           slope="0.4"
           intercept="0"
           id="feFuncA1138" />
      </feComponentTransfer>
      <feGaussianBlur
         stdDeviation="1.70758 1.70758"
         id="feGaussianBlur1142" />
    </filter>
    <filter
       id="fx5"
       x="-128"
       y="-72"
       width="1536"
       height="864.00006"
       filterUnits="userSpaceOnUse"
       primitiveUnits="userSpaceOnUse">
      <feComponentTransfer
         color-interpolation-filters="sRGB"
         id="feComponentTransfer1153">
        <feFuncR
           type="discrete"
           tableValues="0 0"
           id="feFuncR1145" />
        <feFuncG
           type="discrete"
           tableValues="0 0"
           id="feFuncG1147" />
        <feFuncB
           type="discrete"
           tableValues="0 0"
           id="feFuncB1149" />
        <feFuncA
           type="linear"
           slope="0.4"
           intercept="0"
           id="feFuncA1151" />
      </feComponentTransfer>
      <feGaussianBlur
         stdDeviation="1.70758 1.70758"
         id="feGaussianBlur1155" />
    </filter>
    <filter
       id="fx6"
       x="-128"
       y="-72"
       width="1536"
       height="864.00006"
       filterUnits="userSpaceOnUse"
       primitiveUnits="userSpaceOnUse">
      <feComponentTransfer
         color-interpolation-filters="sRGB"
         id="feComponentTransfer1166">
        <feFuncR
           type="discrete"
           tableValues="0 0"
           id="feFuncR1158" />
        <feFuncG
           type="discrete"
           tableValues="0 0"
           id="feFuncG1160" />
        <feFuncB
           type="discrete"
           tableValues="0 0"
           id="feFuncB1162" />
        <feFuncA
           type="linear"
           slope="0.4"
           intercept="0"
           id="feFuncA1164" />
      </feComponentTransfer>
      <feGaussianBlur
         stdDeviation="1.70758 1.70758"
         id="feGaussianBlur1168" />
    </filter>
    <filter
       id="fx7"
       x="-128"
       y="-72"
       width="1536"
       height="864.00006"
       filterUnits="userSpaceOnUse"
       primitiveUnits="userSpaceOnUse">
      <feComponentTransfer
         color-interpolation-filters="sRGB"
         id="feComponentTransfer1179">
        <feFuncR
           type="discrete"
           tableValues="0 0"
           id="feFuncR1171" />
        <feFuncG
           type="discrete"
           tableValues="0 0"
           id="feFuncG1173" />
        <feFuncB
           type="discrete"
           tableValues="0 0"
           id="feFuncB1175" />
        <feFuncA
           type="linear"
           slope="0.4"
           intercept="0"
           id="feFuncA1177" />
      </feComponentTransfer>
      <feGaussianBlur
         stdDeviation="1.70758 1.70758"
         id="feGaussianBlur1181" />
    </filter>
    <filter
       id="fx8"
       x="-128"
       y="-72"
       width="1536"
       height="864.00006"
       filterUnits="userSpaceOnUse"
       primitiveUnits="userSpaceOnUse">
      <feComponentTransfer
         color-interpolation-filters="sRGB"
         id="feComponentTransfer1192">
        <feFuncR
           type="discrete"
           tableValues="0 0"
           id="feFuncR1184" />
        <feFuncG
           type="discrete"
           tableValues="0 0"
           id="feFuncG1186" />
        <feFuncB
           type="discrete"
           tableValues="0 0"
           id="feFuncB1188" />
        <feFuncA
           type="linear"
           slope="0.4"
           intercept="0"
           id="feFuncA1190" />
      </feComponentTransfer>
      <feGaussianBlur
         stdDeviation="1.70758 1.70758"
         id="feGaussianBlur1194" />
    </filter>
    <clipPath
       id="clip9">
      <rect
         x="0"
         y="0"
         width="1280"
         height="720"
         id="rect1197" />
    </clipPath>
    <clipPath
       id="clip10">
      <rect
         x="62"
         y="54"
         width="55"
         height="92"
         id="rect1200" />
    </clipPath>
    <clipPath
       id="clip11">
      <rect
         x="0"
         y="0"
         width="182"
         height="217"
         id="rect1203" />
    </clipPath>
    <clipPath
       id="clip12">
      <rect
         x="70"
         y="50"
         width="43"
         height="104"
         id="rect1206" />
    </clipPath>
    <clipPath
       id="clip13">
      <rect
         x="0"
         y="0"
         width="182"
         height="217"
         id="rect1209" />
    </clipPath>
    <clipPath
       id="clip14">
      <rect
         x="62"
         y="58"
         width="110"
         height="96"
         id="rect1212" />
    </clipPath>
    <clipPath
       id="clip15">
      <rect
         x="0"
         y="0"
         width="234"
         height="217"
         id="rect1215" />
    </clipPath>
    <clipPath
       id="clip16">
      <rect
         x="70"
         y="50"
         width="41"
         height="104"
         id="rect1218" />
    </clipPath>
    <clipPath
       id="clip17">
      <rect
         x="0"
         y="0"
         width="182"
         height="217"
         id="rect1221" />
    </clipPath>
    <clipPath
       id="clip18">
      <rect
         x="72"
         y="54"
         width="43"
         height="81"
         id="rect1224" />
    </clipPath>
    <clipPath
       id="clip19">
      <rect
         x="0"
         y="0"
         width="182"
         height="217"
         id="rect1227" />
    </clipPath>
    <clipPath
       id="clip20">
      <rect
         x="66"
         y="58"
         width="145"
         height="77"
         id="rect1230" />
    </clipPath>
    <clipPath
       id="clip21">
      <rect
         x="0"
         y="0"
         width="288"
         height="217"
         id="rect1233" />
    </clipPath>
    <clipPath
       id="clip22">
      <rect
         x="64"
         y="54"
         width="53"
         height="55"
         id="rect1236" />
    </clipPath>
    <clipPath
       id="clip23">
      <rect
         x="0"
         y="0"
         width="181"
         height="217"
         id="rect1239" />
    </clipPath>
    <clipPath
       id="clip24">
      <rect
         x="64"
         y="58"
         width="322"
         height="77"
         id="rect1242" />
    </clipPath>
    <clipPath
       id="clip25">
      <rect
         x="0"
         y="0"
         width="446"
         height="217"
         id="rect1245" />
    </clipPath>
    <clipPath
       id="clip26">
      <rect
         x="62"
         y="54"
         width="55"
         height="92"
         id="rect1248" />
    </clipPath>
    <clipPath
       id="clip27">
      <rect
         x="0"
         y="0"
         width="182"
         height="217"
         id="rect1251" />
    </clipPath>
    <clipPath
       id="clip10-9">
      <rect
         x="62"
         y="54"
         width="55"
         height="92"
         id="rect1200-4" />
    </clipPath>
    <filter
       id="fx0-8"
       x="-30"
       y="-15"
       width="360"
       height="180"
       filterUnits="userSpaceOnUse"
       primitiveUnits="userSpaceOnUse">
      <feComponentTransfer
         color-interpolation-filters="sRGB"
         id="feComponentTransfer1088-0">
        <feFuncR
           type="discrete"
           tableValues="0 0"
           id="feFuncR1080-1" />
        <feFuncG
           type="discrete"
           tableValues="0 0"
           id="feFuncG1082-4" />
        <feFuncB
           type="discrete"
           tableValues="0 0"
           id="feFuncB1084-9" />
        <feFuncA
           type="linear"
           slope="0.4"
           intercept="0"
           id="feFuncA1086-3" />
      </feComponentTransfer>
      <feGaussianBlur
         stdDeviation="1.70758 1.70758"
         id="feGaussianBlur1090-1" />
    </filter>
    <clipPath
       id="clip11-9">
      <rect
         x="0"
         y="0"
         width="182"
         height="217"
         id="rect1203-5" />
    </clipPath>
    <clipPath
       id="clip12-1">
      <rect
         x="70"
         y="50"
         width="43"
         height="104"
         id="rect1206-2" />
    </clipPath>
    <filter
       id="fx1-2"
       x="-30"
       y="-15"
       width="360"
       height="180"
       filterUnits="userSpaceOnUse"
       primitiveUnits="userSpaceOnUse">
      <feComponentTransfer
         color-interpolation-filters="sRGB"
         id="feComponentTransfer1101-5">
        <feFuncR
           type="discrete"
           tableValues="0 0"
           id="feFuncR1093-7" />
        <feFuncG
           type="discrete"
           tableValues="0 0"
           id="feFuncG1095-8" />
        <feFuncB
           type="discrete"
           tableValues="0 0"
           id="feFuncB1097-2" />
        <feFuncA
           type="linear"
           slope="0.4"
           intercept="0"
           id="feFuncA1099-9" />
      </feComponentTransfer>
      <feGaussianBlur
         stdDeviation="1.70758 1.70758"
         id="feGaussianBlur1103-1" />
    </filter>
    <clipPath
       id="clip13-9">
      <rect
         x="0"
         y="0"
         width="182"
         height="217"
         id="rect1209-9" />
    </clipPath>
    <clipPath
       id="clip16-7">
      <rect
         x="70"
         y="50"
         width="41"
         height="104"
         id="rect1218-1" />
    </clipPath>
    <filter
       id="fx3-6"
       x="-30"
       y="-15"
       width="360"
       height="180"
       filterUnits="userSpaceOnUse"
       primitiveUnits="userSpaceOnUse">
      <feComponentTransfer
         color-interpolation-filters="sRGB"
         id="feComponentTransfer1127-7">
        <feFuncR
           type="discrete"
           tableValues="0 0"
           id="feFuncR1119-1" />
        <feFuncG
           type="discrete"
           tableValues="0 0"
           id="feFuncG1121-3" />
        <feFuncB
           type="discrete"
           tableValues="0 0"
           id="feFuncB1123-4" />
        <feFuncA
           type="linear"
           slope="0.4"
           intercept="0"
           id="feFuncA1125-1" />
      </feComponentTransfer>
      <feGaussianBlur
         stdDeviation="1.70758 1.70758"
         id="feGaussianBlur1129-7" />
    </filter>
    <clipPath
       id="clip17-8">
      <rect
         x="0"
         y="0"
         width="182"
         height="217"
         id="rect1221-8" />
    </clipPath>
    <clipPath
       id="clip18-1">
      <rect
         x="72"
         y="54"
         width="43"
         height="81"
         id="rect1224-5" />
    </clipPath>
    <filter
       id="fx4-5"
       x="-30"
       y="-15"
       width="360"
       height="180"
       filterUnits="userSpaceOnUse"
       primitiveUnits="userSpaceOnUse">
      <feComponentTransfer
         color-interpolation-filters="sRGB"
         id="feComponentTransfer1140-3">
        <feFuncR
           type="discrete"
           tableValues="0 0"
           id="feFuncR1132-0" />
        <feFuncG
           type="discrete"
           tableValues="0 0"
           id="feFuncG1134-5" />
        <feFuncB
           type="discrete"
           tableValues="0 0"
           id="feFuncB1136-0" />
        <feFuncA
           type="linear"
           slope="0.4"
           intercept="0"
           id="feFuncA1138-5" />
      </feComponentTransfer>
      <feGaussianBlur
         stdDeviation="1.70758 1.70758"
         id="feGaussianBlur1142-3" />
    </filter>
    <clipPath
       id="clip19-7">
      <rect
         x="0"
         y="0"
         width="182"
         height="217"
         id="rect1227-3" />
    </clipPath>
    <clipPath
       id="clip22-4">
      <rect
         x="64"
         y="54"
         width="53"
         height="55"
         id="rect1236-2" />
    </clipPath>
    <filter
       id="fx6-0"
       x="-30"
       y="-15"
       width="360"
       height="180"
       filterUnits="userSpaceOnUse"
       primitiveUnits="userSpaceOnUse">
      <feComponentTransfer
         color-interpolation-filters="sRGB"
         id="feComponentTransfer1166-4">
        <feFuncR
           type="discrete"
           tableValues="0 0"
           id="feFuncR1158-2" />
        <feFuncG
           type="discrete"
           tableValues="0 0"
           id="feFuncG1160-2" />
        <feFuncB
           type="discrete"
           tableValues="0 0"
           id="feFuncB1162-3" />
        <feFuncA
           type="linear"
           slope="0.4"
           intercept="0"
           id="feFuncA1164-1" />
      </feComponentTransfer>
      <feGaussianBlur
         stdDeviation="1.70758 1.70758"
         id="feGaussianBlur1168-2" />
    </filter>
    <clipPath
       id="clip23-2">
      <rect
         x="0"
         y="0"
         width="181"
         height="217"
         id="rect1239-1" />
    </clipPath>
    <clipPath
       id="clip26-2">
      <rect
         x="62"
         y="54"
         width="55"
         height="92"
         id="rect1248-4" />
    </clipPath>
    <filter
       id="fx8-2"
       x="-30"
       y="-15"
       width="360"
       height="180"
       filterUnits="userSpaceOnUse"
       primitiveUnits="userSpaceOnUse">
      <feComponentTransfer
         color-interpolation-filters="sRGB"
         id="feComponentTransfer1192-1">
        <feFuncR
           type="discrete"
           tableValues="0 0"
           id="feFuncR1184-1" />
        <feFuncG
           type="discrete"
           tableValues="0 0"
           id="feFuncG1186-6" />
        <feFuncB
           type="discrete"
           tableValues="0 0"
           id="feFuncB1188-3" />
        <feFuncA
           type="linear"
           slope="0.4"
           intercept="0"
           id="feFuncA1190-6" />
      </feComponentTransfer>
      <feGaussianBlur
         stdDeviation="1.70758 1.70758"
         id="feGaussianBlur1194-0" />
    </filter>
    <clipPath
       id="clip27-1">
      <rect
         x="0"
         y="0"
         width="182"
         height="217"
         id="rect1251-1" />
    </clipPath>
    <clipPath
       id="clip14-4">
      <rect
         x="62"
         y="58"
         width="110"
         height="96"
         id="rect1212-7" />
    </clipPath>
    <filter
       id="fx2-1"
       x="-30"
       y="-15"
       width="360"
       height="180"
       filterUnits="userSpaceOnUse"
       primitiveUnits="userSpaceOnUse">
      <feComponentTransfer
         color-interpolation-filters="sRGB"
         id="feComponentTransfer1114-7">
        <feFuncR
           type="discrete"
           tableValues="0 0"
           id="feFuncR1106-0" />
        <feFuncG
           type="discrete"
           tableValues="0 0"
           id="feFuncG1108-0" />
        <feFuncB
           type="discrete"
           tableValues="0 0"
           id="feFuncB1110-6" />
        <feFuncA
           type="linear"
           slope="0.4"
           intercept="0"
           id="feFuncA1112-8" />
      </feComponentTransfer>
      <feGaussianBlur
         stdDeviation="1.70758 1.70758"
         id="feGaussianBlur1116-2" />
    </filter>
    <clipPath
       id="clip15-1">
      <rect
         x="0"
         y="0"
         width="234"
         height="217"
         id="rect1215-0" />
    </clipPath>
    <clipPath
       id="clip20-9">
      <rect
         x="66"
         y="58"
         width="145"
         height="77"
         id="rect1230-5" />
    </clipPath>
    <filter
       id="fx5-6"
       x="-30"
       y="-15"
       width="360"
       height="180"
       filterUnits="userSpaceOnUse"
       primitiveUnits="userSpaceOnUse">
      <feComponentTransfer
         color-interpolation-filters="sRGB"
         id="feComponentTransfer1153-6">
        <feFuncR
           type="discrete"
           tableValues="0 0"
           id="feFuncR1145-9" />
        <feFuncG
           type="discrete"
           tableValues="0 0"
           id="feFuncG1147-6" />
        <feFuncB
           type="discrete"
           tableValues="0 0"
           id="feFuncB1149-7" />
        <feFuncA
           type="linear"
           slope="0.4"
           intercept="0"
           id="feFuncA1151-8" />
      </feComponentTransfer>
      <feGaussianBlur
         stdDeviation="1.70758 1.70758"
         id="feGaussianBlur1155-1" />
    </filter>
    <clipPath
       id="clip21-7">
      <rect
         x="0"
         y="0"
         width="288"
         height="217"
         id="rect1233-3" />
    </clipPath>
    <clipPath
       id="clip24-5">
      <rect
         x="64"
         y="58"
         width="322"
         height="77"
         id="rect1242-6" />
    </clipPath>
    <filter
       id="fx7-9"
       x="-30"
       y="-15"
       width="360"
       height="180"
       filterUnits="userSpaceOnUse"
       primitiveUnits="userSpaceOnUse">
      <feComponentTransfer
         color-interpolation-filters="sRGB"
         id="feComponentTransfer1179-8">
        <feFuncR
           type="discrete"
           tableValues="0 0"
           id="feFuncR1171-2" />
        <feFuncG
           type="discrete"
           tableValues="0 0"
           id="feFuncG1173-6" />
        <feFuncB
           type="discrete"
           tableValues="0 0"
           id="feFuncB1175-6" />
        <feFuncA
           type="linear"
           slope="0.4"
           intercept="0"
           id="feFuncA1177-3" />
      </feComponentTransfer>
      <feGaussianBlur
         stdDeviation="1.70758 1.70758"
         id="feGaussianBlur1181-4" />
    </filter>
    <clipPath
       id="clip25-4">
      <rect
         x="0"
         y="0"
         width="446"
         height="217"
         id="rect1245-9" />
    </clipPath>
    <filter
       inkscape:collect="always"
       style="color-interpolation-filters:sRGB"
       id="filter49925"
       x="-0.00091977876"
       y="-0.0092031405"
       width="1.00184"
       height="1.0184569">
      <feGaussianBlur
         inkscape:collect="always"
         stdDeviation="0.024191518"
         id="feGaussianBlur49927" />
    </filter>
  </defs>
  <g
     clip-path="url(#clip9)"
     id="g1330">
    <g
       id="g4158"
       transform="translate(-180.51283,-242.69907)">
      <g
         id="g50877"
         transform="translate(-2.0432581e-4,-0.00200618)">
        <g
           id="g49608"
           style="fill:#dbe3de;stroke:#ffffff;stroke-opacity:1;filter:url(#filter49925)"
           transform="translate(577.56228,-55.77506)">
          <path
             d="m -330.9583,454.89222 h -9.9215 l 29.2203,-68.15279 h 9.96336 z"
             style="font-size:85.7352px;line-height:1.25;fill:#dbe3de;stroke:#ffffff;stroke-opacity:1"
             id="path40812-8" />
          <path
             d="m -254.05617,429.35586 q 0,4.47933 -1.67451,7.78649 -1.63265,3.30717 -4.60492,5.48404 -2.97227,2.13501 -7.07483,3.18158 -4.10256,1.04656 -8.95866,1.04656 -4.31187,0 -8.33071,-0.50234 -4.01884,-0.50235 -7.95395,-1.67452 v -10.17268 q 1.92569,0.66981 4.01884,1.25589 2.09314,0.58608 4.18629,1.04657 2.135,0.41863 4.22815,0.66981 2.09314,0.25117 4.0607,0.25117 2.9304,0 4.98168,-0.50235 2.05128,-0.50235 3.34903,-1.38148 1.29775,-0.87912 1.88383,-2.09314 0.58608,-1.21402 0.58608,-2.67922 0,-2.00942 -1.17216,-3.34904 -1.1303,-1.38147 -3.01413,-2.42804 -1.88383,-1.04658 -4.31187,-1.88383 -2.38619,-0.83726 -4.89796,-1.80011 -2.46991,-0.96285 -4.89796,-2.17688 -2.38618,-1.21402 -4.27001,-3.01413 -1.88383,-1.8001 -3.056,-4.27001 -1.13029,-2.51177 -1.13029,-6.02826 0,-3.22344 1.17216,-6.11198 1.17216,-2.88854 3.68393,-5.02355 2.51177,-2.17687 6.44689,-3.43275 3.93511,-1.29775 9.50287,-1.29775 1.63266,0 3.3909,0.16745 1.8001,0.12559 3.51648,0.37676 1.75824,0.20932 3.34903,0.54422 1.63265,0.29304 2.97227,0.62795 v 9.41915 q -1.33962,-0.50236 -2.93041,-0.92099 -1.59079,-0.41863 -3.30716,-0.71167 -1.67452,-0.3349 -3.3909,-0.50235 -1.71638,-0.16745 -3.2653,-0.16745 -2.72109,0 -4.60492,0.46049 -1.88383,0.41863 -3.09786,1.21402 -1.21402,0.75353 -1.75824,1.88383 -0.54421,1.1303 -0.54421,2.51178 0,1.71637 1.13029,2.97226 1.17216,1.21403 3.05599,2.21873 1.9257,0.96285 4.31188,1.84197 2.42805,0.83726 4.93982,1.84197 2.55364,0.96285 4.93982,2.21873 2.42805,1.25589 4.31188,3.05599 1.92569,1.80011 3.05599,4.27002 1.17216,2.42805 1.17216,5.77709 z"
             style="font-size:85.7352px;line-height:1.25;fill:#dbe3de;stroke:#ffffff;stroke-opacity:1"
             id="path40814-8" />
          <path
             d="m -205.53708,423.87182 q 0,5.86079 -1.67451,10.13081 -1.63265,4.27001 -4.60492,7.11669 -2.9304,2.80481 -6.94924,4.18629 -4.01884,1.33961 -8.74934,1.33961 -1.59079,0 -3.18158,-0.20931 -1.59079,-0.20932 -2.88854,-0.54422 v 16.61957 h -10.21455 v -59.15227 h 8.83307 l 0.25118,6.27945 q 1.29775,-1.63266 2.67922,-2.97227 1.42334,-1.33961 3.056,-2.2606 1.63265,-0.96285 3.51648,-1.4652 1.88383,-0.50235 4.22815,-0.50235 3.76766,0 6.69806,1.50706 2.9304,1.50707 4.89796,4.31188 2.00942,2.76295 3.05599,6.73993 1.04657,3.93511 1.04657,8.87493 z m -10.7169,0.41863 q 0,-3.51649 -0.50235,-5.9864 -0.50236,-2.46992 -1.4652,-4.0607 -0.92099,-1.5908 -2.30246,-2.30246 -1.33961,-0.75353 -3.09785,-0.75353 -2.5955,0 -4.98169,2.09314 -2.34432,2.09314 -4.98168,5.69336 v 18.58712 q 1.21402,0.46049 2.97226,0.75354 1.80011,0.29304 3.64207,0.29304 2.42805,0 4.39561,-1.00471 2.00942,-1.00471 3.39089,-2.84668 1.42334,-1.84197 2.17687,-4.47933 0.75353,-2.67922 0.75353,-5.98639 z"
             style="font-size:85.7352px;line-height:1.25;fill:#dbe3de;stroke:#ffffff;stroke-opacity:1"
             id="path40816-5" />
          <path
             d="m -170.74902,463.4741 q -10.17268,-8.62374 -15.27995,-18.5034 -5.06541,-9.87963 -5.06541,-21.26634 0,-6.36316 1.50706,-12.01465 1.50707,-5.69336 4.22815,-10.67504 2.76295,-4.98168 6.53061,-9.33542 3.80953,-4.39561 8.33072,-8.20513 l 5.81894,5.81894 q -8.16326,7.32601 -12.26583,15.82417 -4.10256,8.49817 -4.10256,17.87546 0,9.50287 4.10256,18.29408 4.10257,8.74934 12.26583,15.99162 z"
             style="font-weight:bold;font-size:85.7352px;line-height:1.25;font-family:Consolas;-inkscape-font-specification:'Consolas Bold';fill:#dbe3de;stroke:#ffffff;stroke-opacity:1"
             id="path40818-7" />
          <path
             d="m -112.47587,421.36003 q 0,1.04658 -0.0837,2.72109 -0.0419,1.67452 -0.16745,3.13972 h -27.96441 q 0,2.80481 0.83726,4.93982 0.87912,2.13502 2.42805,3.60021 1.59079,1.42334 3.76766,2.17687 2.21873,0.75354 4.89796,0.75354 3.09785,0 6.61433,-0.46049 3.55835,-0.50236 7.36787,-1.5908 v 8.1214 q -1.63265,0.46049 -3.55834,0.83726 -1.9257,0.37676 -3.93512,0.66981 -2.00941,0.29304 -4.0607,0.41863 -2.05128,0.16744 -3.97697,0.16744 -4.8561,0 -8.70748,-1.38146 -3.85139,-1.38149 -6.53061,-4.0607 -2.67923,-2.72109 -4.10257,-6.69806 -1.42333,-3.97699 -1.42333,-9.20984 0,-5.191 1.42333,-9.41915 1.42334,-4.27001 4.01884,-7.28414 2.5955,-3.05599 6.27944,-4.68865 3.72579,-1.67451 8.28885,-1.67451 4.52119,0 7.99581,1.42334 3.47462,1.38147 5.81894,3.89325 2.34432,2.51177 3.55835,5.98639 1.21402,3.47462 1.21402,7.61904 z m -10.382,-1.4652 q 0.0419,-2.51177 -0.62794,-4.35374 -0.66981,-1.88383 -1.84197,-3.09785 -1.13029,-1.21402 -2.67922,-1.80011 -1.50707,-0.58608 -3.26531,-0.58608 -3.85138,0 -6.32129,2.5955 -2.46991,2.55364 -2.93041,7.24228 z"
             style="font-size:85.7352px;line-height:1.25;fill:#dbe3de;stroke:#ffffff;stroke-opacity:1"
             id="path40820-1" />
          <path
             d="m -67.97561,444.25905 q -3.01413,1.21402 -6.23757,1.80009 -3.22345,0.58608 -6.73993,0.58608 -5.06541,0 -9.08425,-1.38148 -4.01883,-1.38147 -6.82365,-4.10256 -2.80481,-2.72109 -4.31187,-6.73992 -1.46521,-4.01884 -1.46521,-9.29356 0,-5.10728 1.59079,-9.25169 1.63266,-4.14443 4.56306,-7.07484 2.9304,-2.9304 7.03296,-4.52119 4.14443,-1.59079 9.20984,-1.59079 4.14443,0 6.94924,0.46049 2.84668,0.41863 5.10727,1.08843 v 9.92151 q -2.5955,-1.29775 -5.65149,-2.00941 -3.01413,-0.71168 -5.73521,-0.71168 -2.84668,0 -5.10728,0.96285 -2.26059,0.96285 -3.80952,2.67922 -1.54893,1.71638 -2.38618,4.18629 -0.7954,2.42805 -0.7954,5.35845 0,3.05599 0.87912,5.48404 0.87912,2.42805 2.46991,4.14442 1.63266,1.67452 3.89325,2.59551 2.2606,0.87912 5.02355,0.87912 1.33961,0 2.80481,-0.16745 1.50707,-0.20931 2.97227,-0.54421 1.50706,-0.37678 2.9304,-0.83727 1.4652,-0.46048 2.72109,-1.0047 z"
             style="font-size:85.7352px;line-height:1.25;fill:#dbe3de;stroke:#ffffff;stroke-opacity:1"
             id="path40822-4" />
          <path
             d="m -45.45339,383.47413 q 10.25641,8.54003 15.27996,18.46152 5.02354,9.87966 5.02354,21.30821 0,6.36316 -1.50706,12.01465 -1.50706,5.65149 -4.22815,10.67504 -2.67923,5.02356 -6.44689,9.3773 -3.76766,4.3956 -8.28885,8.16325 l -5.8608,-5.81894 q 8.20512,-7.326 12.30769,-15.86603 4.10256,-8.54003 4.10256,-17.91731 0,-9.46103 -4.10256,-18.25223 -4.10257,-8.7912 -12.30769,-16.07535 z"
             style="font-weight:bold;font-size:85.7352px;line-height:1.25;font-family:Consolas;-inkscape-font-specification:'Consolas Bold';fill:#dbe3de;stroke:#ffffff;stroke-opacity:1"
             id="path40824-9" />
          <path
             d="m 26.46708,404.90793 q 0,3.51648 -1.08844,6.3213 -1.04657,2.76295 -3.05599,4.81423 -1.96755,2.00942 -4.77237,3.2653 -2.80481,1.25589 -6.27943,1.71638 l -0.41863,7.87022 H 2.10288 L 1.34934,413.15492 h 6.07012 q 2.05128,0 3.51648,-0.58608 1.50707,-0.58608 2.42805,-1.59079 0.96285,-1.00471 1.38148,-2.30246 0.46049,-1.33961 0.46049,-2.80481 0,-2.00942 -0.87912,-3.7258 -0.83726,-1.75824 -2.67923,-3.05599 -1.8001,-1.33962 -4.60491,-2.09315 -2.80482,-0.75353 -6.73993,-0.75353 h -2.46991 v -9.50288 H 0.7214 q 6.44688,0 11.26112,1.54893 4.81423,1.50707 8.03767,4.0607 3.22344,2.51178 4.81423,5.77708 1.63266,3.26531 1.63266,6.78179 z m -13.06122,35.24855 q 0,1.38148 -0.54422,2.5955 -0.54422,1.21403 -1.4652,2.13501 -0.92099,0.92098 -2.17687,1.42334 -1.25589,0.54421 -2.67923,0.54421 -1.42334,0 -2.67922,-0.54421 -1.21403,-0.50236 -2.13501,-1.42334 -0.92098,-0.92098 -1.4652,-2.13501 -0.54422,-1.21402 -0.54422,-2.5955 0,-1.38147 0.54422,-2.5955 0.54422,-1.21402 1.4652,-2.135 0.92098,-0.92099 2.13501,-1.42334 1.25588,-0.54422 2.67922,-0.54422 1.42334,0 2.67923,0.54422 1.25588,0.50235 2.17687,1.42334 0.92098,0.92098 1.4652,2.135 0.54422,1.21403 0.54422,2.5955 z"
             style="font-size:85.7352px;line-height:1.25;fill:#dbe3de;stroke:#ffffff;stroke-opacity:1"
             id="path40826-4" />
          <path
             d="m 40.90976,445.8917 v -54.71481 h 32.9461 v 8.70748 H 51.37549 v 13.60544 h 21.4338 v 8.49817 h -21.4338 v 15.19623 h 22.48037 v 8.70748 z"
             style="font-size:85.7352px;line-height:1.25;fill:#dbe3de;stroke:#ffffff;stroke-opacity:1"
             id="path40828-4" />
          <path
             d="m 113.54187,445.8917 -9.71219,-14.31711 -9.75406,14.31711 H 81.72607 l 15.94976,-21.43381 -15.1125,-21.0989 h 12.43328 l 9.54474,13.98221 9.41915,-13.98221 h 11.47043 l -14.65201,21.01517 15.4474,21.51754 z"
             style="font-size:85.7352px;line-height:1.25;fill:#dbe3de;stroke:#ffffff;stroke-opacity:1"
             id="path40830-5" />
          <path
             d="m 150.79986,430.44429 q 1.75824,0 3.26531,0.66981 1.50706,0.62794 2.59549,1.75824 1.1303,1.08843 1.75825,2.5955 0.62794,1.50706 0.62794,3.22344 0,1.67451 -0.62794,3.18158 -0.62795,1.46519 -1.75825,2.5955 -1.08843,1.08844 -2.59549,1.71638 -1.50707,0.6698 -3.26531,0.6698 -1.67452,0 -3.13972,-0.6698 -1.4652,-0.62794 -2.55363,-1.71638 -1.08844,-1.1303 -1.71638,-2.5955 -0.62795,-1.50707 -0.62795,-3.18158 0,-1.71639 0.62795,-3.22344 0.62794,-1.50707 1.71638,-2.5955 1.08843,-1.1303 2.55363,-1.75824 1.4652,-0.66981 3.13972,-0.66981 z"
             style="font-weight:bold;font-size:85.7352px;line-height:1.25;font-family:Consolas;-inkscape-font-specification:'Consolas Bold';fill:#dbe3de;stroke:#ffffff;stroke-opacity:1"
             id="path40832-1" />
          <path
             d="m 202.58427,422.90897 h -8.74934 l 1.17216,-12.93563 -10.50758,7.53532 -4.22816,-7.28414 11.76348,-5.40032 -11.76348,-5.40031 4.22816,-7.28414 10.50758,7.53532 -1.17216,-12.93564 h 8.74934 l -1.21402,12.93564 10.54945,-7.53532 4.18629,7.28414 -11.72161,5.40031 11.72161,5.40032 -4.18629,7.28414 -10.54945,-7.53532 z"
             style="font-size:85.7352px;line-height:1.25;fill:#dbe3de;fill-opacity:1;stroke:#ffffff;stroke-opacity:1"
             id="path40834-9" />
          <path
             d="m 265.37857,408.59185 q 0,4.27002 -1.42334,7.91209 -1.42334,3.60021 -4.22815,6.23757 -2.80481,2.63736 -6.9911,4.10256 -4.18629,1.4652 -9.71219,1.4652 h -5.23287 v 17.58242 h -10.38199 v -54.7148 h 16.03348 q 5.31659,0 9.37729,1.17217 4.10257,1.13029 6.86552,3.34903 2.80481,2.21874 4.22815,5.48404 1.4652,3.22344 1.4652,7.40972 z m -10.80063,0.71168 q 0,-2.17687 -0.71167,-3.93511 -0.6698,-1.8001 -2.09314,-3.05599 -1.38148,-1.2559 -3.51648,-1.92569 -2.13501,-0.66981 -5.06541,-0.66981 h -5.40032 v 20.05232 h 5.73522 q 2.67923,0 4.73051,-0.71166 2.05128,-0.75354 3.43275,-2.13501 1.42334,-1.38148 2.13501,-3.30717 0.75353,-1.92569 0.75353,-4.31188 z"
             style="font-size:85.7352px;line-height:1.25;fill:#dbe3de;stroke:#ffffff;stroke-opacity:1"
             id="path40836-3" />
          <path
             d="m 301.38067,445.8917 -0.25117,-5.56777 q -1.33962,1.42334 -2.80482,2.63736 -1.4652,1.17217 -3.22344,2.05129 -1.75824,0.87912 -3.85138,1.33961 -2.05129,0.50234 -4.5212,0.50234 -3.2653,0 -5.73521,-0.96284 -2.46991,-0.96285 -4.14443,-2.67923 -1.67451,-1.71638 -2.55364,-4.14442 -0.83725,-2.42805 -0.83725,-5.35845 0,-3.01413 1.25588,-5.56777 1.29775,-2.55363 3.89325,-4.3956 2.63736,-1.84197 6.53061,-2.88854 3.93511,-1.04657 9.20984,-1.04657 h 5.56776 v -2.55364 q 0,-1.63265 -0.46049,-2.9304 -0.46049,-1.33961 -1.50706,-2.2606 -1.00471,-0.92098 -2.63736,-1.42334 -1.63266,-0.50235 -4.01884,-0.50235 -3.76766,0 -7.4516,0.87912 -3.64207,0.83726 -7.07482,2.38619 v -8.16327 q 3.05599,-1.21402 7.03296,-2.00942 4.01884,-0.79539 8.33072,-0.79539 4.7305,0 8.1214,0.92098 3.39089,0.87912 5.56776,2.67923 2.21873,1.8001 3.26531,4.52119 1.04657,2.67922 1.04657,6.27943 v 29.05285 z m -1.4652,-18.79645 h -6.23757 q -2.5955,0 -4.3956,0.50237 -1.80011,0.50234 -2.9304,1.38146 -1.1303,0.87912 -1.67452,2.05129 -0.50235,1.13029 -0.50235,2.42804 0,2.59551 1.67451,3.97697 1.67452,1.33963 4.56306,1.33963 2.135,0 4.43746,-1.54893 2.30246,-1.54893 5.06541,-4.43747 z"
             style="font-size:85.7352px;line-height:1.25;fill:#dbe3de;stroke:#ffffff;stroke-opacity:1"
             id="path40838-4" />
          <path
             d="m 349.22998,419.89483 q 0.0837,-2.38618 -0.25118,-4.0607 -0.29304,-1.67451 -1.00471,-2.76294 -0.66981,-1.08844 -1.67451,-1.5908 -1.00471,-0.50235 -2.30246,-0.50235 -2.2606,0 -4.68865,1.88383 -2.38618,1.84197 -5.27472,6.11199 V 445.8917 H 323.56803 V 403.359 h 9.25169 l 0.37677,6.19571 q 1.04657,-1.63265 2.34432,-2.9304 1.33962,-1.29775 2.93041,-2.21874 1.63265,-0.96285 3.6002,-1.4652 1.96756,-0.50235 4.31188,-0.50235 3.22344,0 5.69335,1.1303 2.51178,1.08843 4.18629,3.2653 1.71638,2.17687 2.51178,5.48404 0.83725,3.26531 0.71167,7.57718 z"
             style="font-size:85.7352px;line-height:1.25;fill:#dbe3de;stroke:#ffffff;stroke-opacity:1"
             id="path40840-5" />
          <path
             d="m 404.07032,433.37468 q 0,3.64209 -1.63265,6.23757 -1.59079,2.55364 -4.27001,4.18629 -2.63737,1.5908 -6.02826,2.30246 -3.34903,0.75353 -6.86551,0.75353 -4.68865,0 -8.45631,-0.46049 -3.76766,-0.41863 -7.11669,-1.25587 v -9.20984 q 3.93511,1.63265 7.82836,2.38619 3.93511,0.71166 7.40973,0.71166 4.01884,0 5.9864,-1.25588 2.00941,-1.29775 2.00941,-3.34904 0,-0.96285 -0.41862,-1.75824 -0.41863,-0.79539 -1.59079,-1.50707 -1.1303,-0.75353 -3.22345,-1.50706 -2.09314,-0.7954 -5.48404,-1.75824 -3.13971,-0.87913 -5.5259,-1.96756 -2.34432,-1.1303 -3.89325,-2.63736 -1.54892,-1.50707 -2.34432,-3.47462 -0.75353,-2.00942 -0.75353,-4.68865 0,-2.5955 1.17216,-4.89795 1.17216,-2.30246 3.47462,-4.01884 2.34432,-1.75824 5.81894,-2.76295 3.47462,-1.00471 8.1214,-1.00471 4.01884,0 7.11669,0.41864 3.09786,0.41863 5.48404,0.92097 v 8.33072 q -3.64207,-1.17217 -6.86551,-1.63266 -3.18158,-0.50234 -6.3213,-0.50234 -3.13971,0 -5.06541,1.13029 -1.88383,1.13029 -1.88383,3.13971 0,0.96285 0.37677,1.71638 0.37677,0.75353 1.4652,1.4652 1.1303,0.71167 3.09785,1.50707 2.00942,0.75353 5.27473,1.67451 3.68393,1.04657 6.19571,2.2606 2.51177,1.17216 4.01883,2.67922 1.54893,1.50707 2.21874,3.43276 0.6698,1.92569 0.6698,4.3956 z"
             style="font-size:85.7352px;line-height:1.25;fill:#dbe3de;stroke:#ffffff;stroke-opacity:1"
             id="path40842-0" />
          <path
             d="m 453.17552,421.36003 q 0,1.04658 -0.084,2.72109 -0.042,1.67452 -0.1675,3.13972 h -27.9644 q 0,2.80481 0.8373,4.93982 0.8791,2.13502 2.428,3.60021 1.5908,1.42334 3.7677,2.17687 2.2187,0.75354 4.8979,0.75354 3.0979,0 6.6144,-0.46049 3.5583,-0.50236 7.3678,-1.5908 v 8.1214 q -1.6326,0.46049 -3.5583,0.83726 -1.9257,0.37676 -3.9351,0.66981 -2.0094,0.29304 -4.0607,0.41863 -2.0513,0.16744 -3.977,0.16744 -4.8561,0 -8.7075,-1.38146 -3.8514,-1.38149 -6.53059,-4.0607 -2.67923,-2.72109 -4.10256,-6.69806 -1.42334,-3.97699 -1.42334,-9.20984 0,-5.191 1.42334,-9.41915 1.42333,-4.27001 4.01883,-7.28414 2.59552,-3.05599 6.27942,-4.68865 3.7258,-1.67451 8.2889,-1.67451 4.5212,0 7.9958,1.42334 3.4746,1.38147 5.8189,3.89325 2.3443,2.51177 3.5584,5.98639 1.214,3.47462 1.214,7.61904 z m -10.382,-1.4652 q 0.042,-2.51177 -0.6279,-4.35374 -0.6699,-1.88383 -1.842,-3.09785 -1.1303,-1.21402 -2.6792,-1.80011 -1.5071,-0.58608 -3.2653,-0.58608 -3.8514,0 -6.3213,2.5955 -2.47,2.55364 -2.9304,7.24228 z"
             style="font-size:85.7352px;line-height:1.25;fill:#dbe3de;stroke:#ffffff;stroke-opacity:1"
             id="path40844-8" />
          <path
             d="m 490.64282,419.89483 q 0.084,-2.38618 -0.2512,-4.0607 -0.293,-1.67451 -1.0047,-2.76294 -0.6698,-1.08844 -1.6745,-1.5908 -1.0047,-0.50235 -2.3025,-0.50235 -2.2606,0 -4.6886,1.88383 -2.3862,1.84197 -5.2747,6.11199 v 26.91784 h -10.4658 V 403.359 h 9.2517 l 0.3768,6.19571 q 1.0466,-1.63265 2.3443,-2.9304 1.3396,-1.29775 2.9304,-2.21874 1.6327,-0.96285 3.6002,-1.4652 1.9676,-0.50235 4.3119,-0.50235 3.2235,0 5.6934,1.1303 2.5117,1.08843 4.1863,3.2653 1.7163,2.17687 2.5117,5.48404 0.8373,3.26531 0.7117,7.57718 z"
             style="font-size:85.7352px;line-height:1.25;fill:#dbe3de;stroke:#ffffff;stroke-opacity:1"
             id="path40846-4" />
          <path
             d="m 517.51872,454.89222 h -9.9215 l 29.2203,-68.15279 h 9.9634 z"
             style="font-size:85.7352px;line-height:1.25;fill:#dbe3de;stroke:#ffffff;stroke-opacity:1"
             id="path40848-6" />
        </g>
        <g
           id="g49629">
          <path
             d="m 246.60398,399.11716 h -9.9215 l 29.2203,-68.15279 h 9.96336 z"
             style="font-size:85.7352px;line-height:1.25;fill:#808080"
             id="path40812" />
          <path
             d="m 323.50611,373.5808 q 0,4.47933 -1.67451,7.78649 -1.63265,3.30717 -4.60492,5.48404 -2.97227,2.13501 -7.07483,3.18158 -4.10256,1.04657 -8.95866,1.04657 -4.31187,0 -8.33071,-0.50235 -4.01884,-0.50235 -7.95395,-1.67452 v -10.17268 q 1.92569,0.66981 4.01884,1.25589 2.09314,0.58608 4.18629,1.04657 2.135,0.41863 4.22815,0.66981 2.09314,0.25117 4.0607,0.25117 2.9304,0 4.98168,-0.50235 2.05128,-0.50235 3.34903,-1.38148 1.29775,-0.87912 1.88383,-2.09314 0.58608,-1.21402 0.58608,-2.67922 0,-2.00942 -1.17216,-3.34904 -1.1303,-1.38147 -3.01413,-2.42804 -1.88383,-1.04658 -4.31187,-1.88383 -2.38619,-0.83726 -4.89796,-1.80011 -2.46991,-0.96284 -4.89796,-2.17687 -2.38618,-1.21402 -4.27001,-3.01413 -1.88383,-1.8001 -3.056,-4.27001 -1.13029,-2.51177 -1.13029,-6.02826 0,-3.22344 1.17216,-6.11198 1.17216,-2.88854 3.68393,-5.02355 2.51177,-2.17687 6.44689,-3.43275 3.93511,-1.29775 9.50287,-1.29775 1.63266,0 3.3909,0.16745 1.8001,0.12559 3.51648,0.37676 1.75824,0.20932 3.34903,0.54422 1.63265,0.29304 2.97227,0.62795 v 9.41915 q -1.33962,-0.50236 -2.93041,-0.92099 -1.59079,-0.41863 -3.30716,-0.71167 -1.67452,-0.3349 -3.3909,-0.50235 -1.71638,-0.16745 -3.2653,-0.16745 -2.72109,0 -4.60492,0.46049 -1.88383,0.41863 -3.09786,1.21402 -1.21402,0.75353 -1.75824,1.88383 -0.54421,1.1303 -0.54421,2.51178 0,1.71637 1.13029,2.97226 1.17216,1.21403 3.05599,2.21873 1.9257,0.96285 4.31188,1.84197 2.42805,0.83726 4.93982,1.84197 2.55364,0.96285 4.93982,2.21873 2.42805,1.25589 4.31188,3.05599 1.92569,1.80011 3.05599,4.27002 1.17216,2.42805 1.17216,5.77708 z"
             style="font-size:85.7352px;line-height:1.25;fill:#1a1a1a"
             id="path40814" />
          <path
             d="m 372.0252,368.09676 q 0,5.8608 -1.67451,10.13082 -1.63265,4.27001 -4.60492,7.11669 -2.9304,2.80481 -6.94924,4.18629 -4.01884,1.33961 -8.74934,1.33961 -1.59079,0 -3.18158,-0.20931 -1.59079,-0.20932 -2.88854,-0.54422 v 16.61957 h -10.21455 v -59.15227 h 8.83307 l 0.25118,6.27944 q 1.29775,-1.63266 2.67922,-2.97227 1.42334,-1.33961 3.056,-2.2606 1.63265,-0.96284 3.51648,-1.4652 1.88383,-0.50235 4.22815,-0.50235 3.76766,0 6.69806,1.50706 2.9304,1.50707 4.89796,4.31188 2.00942,2.76295 3.05599,6.73993 1.04657,3.93511 1.04657,8.87493 z m -10.7169,0.41863 q 0,-3.51649 -0.50235,-5.9864 -0.50236,-2.46991 -1.4652,-4.0607 -0.92099,-1.59079 -2.30246,-2.30246 -1.33961,-0.75353 -3.09785,-0.75353 -2.5955,0 -4.98169,2.09315 -2.34432,2.09314 -4.98168,5.69335 v 18.58712 q 1.21402,0.46049 2.97226,0.75354 1.80011,0.29304 3.64207,0.29304 2.42805,0 4.39561,-1.00471 2.00942,-1.00471 3.39089,-2.84668 1.42334,-1.84197 2.17687,-4.47933 0.75353,-2.67922 0.75353,-5.98639 z"
             style="font-size:85.7352px;line-height:1.25;fill:#1a1a1a"
             id="path40816" />
          <path
             d="m 406.81326,407.69905 q -10.17268,-8.62375 -15.27995,-18.5034 -5.06541,-9.87964 -5.06541,-21.26634 0,-6.36316 1.50706,-12.01465 1.50707,-5.69336 4.22815,-10.67504 2.76295,-4.98168 6.53061,-9.33542 3.80953,-4.39561 8.33072,-8.20513 l 5.81894,5.81894 q -8.16326,7.32601 -12.26583,15.82417 -4.10256,8.49817 -4.10256,17.87546 0,9.50287 4.10256,18.29408 4.10257,8.74934 12.26583,15.99162 z"
             style="font-weight:bold;font-size:85.7352px;line-height:1.25;font-family:Consolas;-inkscape-font-specification:'Consolas Bold';fill:#80ffb3"
             id="path40818" />
          <path
             d="m 465.08641,365.58498 q 0,1.04658 -0.0837,2.72109 -0.0419,1.67452 -0.16745,3.13972 h -27.96441 q 0,2.80481 0.83726,4.93982 0.87912,2.13501 2.42805,3.60021 1.59079,1.42334 3.76766,2.17687 2.21873,0.75353 4.89796,0.75353 3.09785,0 6.61433,-0.46049 3.55835,-0.50236 7.36787,-1.59079 v 8.1214 q -1.63265,0.46049 -3.55834,0.83726 -1.9257,0.37676 -3.93512,0.6698 -2.00941,0.29304 -4.0607,0.41863 -2.05128,0.16745 -3.97697,0.16745 -4.8561,0 -8.70748,-1.38147 -3.85139,-1.38148 -6.53061,-4.0607 -2.67923,-2.72109 -4.10257,-6.69806 -1.42333,-3.97698 -1.42333,-9.20984 0,-5.191 1.42333,-9.41915 1.42334,-4.27001 4.01884,-7.28414 2.5955,-3.05599 6.27944,-4.68865 3.72579,-1.67451 8.28885,-1.67451 4.52119,0 7.99581,1.42334 3.47462,1.38147 5.81894,3.89325 2.34432,2.51177 3.55835,5.98639 1.21402,3.47462 1.21402,7.61904 z m -10.382,-1.4652 q 0.0419,-2.51177 -0.62794,-4.35374 -0.66981,-1.88383 -1.84197,-3.09785 -1.13029,-1.21402 -2.67922,-1.80011 -1.50707,-0.58608 -3.26531,-0.58608 -3.85138,0 -6.32129,2.5955 -2.46991,2.55364 -2.93041,7.24228 z"
             style="font-size:85.7352px;line-height:1.25;fill:#1a1a1a"
             id="path40820" />
          <path
             d="m 509.58667,388.48399 q -3.01413,1.21402 -6.23757,1.8001 -3.22345,0.58608 -6.73993,0.58608 -5.06541,0 -9.08425,-1.38148 -4.01883,-1.38147 -6.82365,-4.10256 -2.80481,-2.72109 -4.31187,-6.73992 -1.46521,-4.01884 -1.46521,-9.29357 0,-5.10727 1.59079,-9.25169 1.63266,-4.14443 4.56306,-7.07483 2.9304,-2.9304 7.03296,-4.52119 4.14443,-1.59079 9.20984,-1.59079 4.14443,0 6.94924,0.46049 2.84668,0.41863 5.10727,1.08843 v 9.92151 q -2.5955,-1.29775 -5.65149,-2.00942 -3.01413,-0.71167 -5.73521,-0.71167 -2.84668,0 -5.10728,0.96285 -2.26059,0.96284 -3.80952,2.67922 -1.54893,1.71638 -2.38618,4.18629 -0.7954,2.42805 -0.7954,5.35845 0,3.05599 0.87912,5.48404 0.87912,2.42805 2.46991,4.14442 1.63266,1.67452 3.89325,2.5955 2.2606,0.87912 5.02355,0.87912 1.33961,0 2.80481,-0.16745 1.50707,-0.20931 2.97227,-0.54421 1.50706,-0.37677 2.9304,-0.83726 1.4652,-0.46049 2.72109,-1.00471 z"
             style="font-size:85.7352px;line-height:1.25;fill:#1a1a1a"
             id="path40822" />
          <path
             d="m 532.10889,327.69907 q 10.25641,8.54003 15.27996,18.46153 5.02354,9.87965 5.02354,21.30821 0,6.36316 -1.50706,12.01465 -1.50706,5.65149 -4.22815,10.67504 -2.67923,5.02355 -6.44689,9.37729 -3.76766,4.3956 -8.28885,8.16326 l -5.8608,-5.81894 q 8.20512,-7.32601 12.30769,-15.86604 4.10256,-8.54002 4.10256,-17.91731 0,-9.46102 -4.10256,-18.25222 -4.10257,-8.79121 -12.30769,-16.07535 z"
             style="font-weight:bold;font-size:85.7352px;line-height:1.25;font-family:Consolas;-inkscape-font-specification:'Consolas Bold';fill:#80ffb3"
             id="path40824" />
          <path
             d="m 604.02936,349.13287 q 0,3.51648 -1.08844,6.3213 -1.04657,2.76295 -3.05599,4.81423 -1.96755,2.00942 -4.77237,3.2653 -2.80481,1.25589 -6.27943,1.71638 l -0.41863,7.87022 h -8.74934 l -0.75354,-15.74044 h 6.07012 q 2.05128,0 3.51648,-0.58608 1.50707,-0.58608 2.42805,-1.59079 0.96285,-1.00471 1.38148,-2.30246 0.46049,-1.33961 0.46049,-2.80481 0,-2.00942 -0.87912,-3.7258 -0.83726,-1.75824 -2.67923,-3.05599 -1.8001,-1.33962 -4.60491,-2.09315 -2.80482,-0.75353 -6.73993,-0.75353 h -2.46991 v -9.50288 h 2.88854 q 6.44688,0 11.26112,1.54893 4.81423,1.50707 8.03767,4.0607 3.22344,2.51178 4.81423,5.77708 1.63266,3.26531 1.63266,6.78179 z m -13.06122,35.24855 q 0,1.38148 -0.54422,2.5955 -0.54422,1.21403 -1.4652,2.13501 -0.92099,0.92098 -2.17687,1.42334 -1.25589,0.54421 -2.67923,0.54421 -1.42334,0 -2.67922,-0.54421 -1.21403,-0.50236 -2.13501,-1.42334 -0.92098,-0.92098 -1.4652,-2.13501 -0.54422,-1.21402 -0.54422,-2.5955 0,-1.38147 0.54422,-2.5955 0.54422,-1.21402 1.4652,-2.135 0.92098,-0.92099 2.13501,-1.42334 1.25588,-0.54422 2.67922,-0.54422 1.42334,0 2.67923,0.54422 1.25588,0.50235 2.17687,1.42334 0.92098,0.92098 1.4652,2.135 0.54422,1.21403 0.54422,2.5955 z"
             style="font-size:85.7352px;line-height:1.25;fill:#2c89a0"
             id="path40826" />
          <path
             d="m 618.47204,390.11664 v -54.7148 h 32.9461 v 8.70748 h -22.48037 v 13.60544 h 21.4338 v 8.49817 h -21.4338 v 15.19623 h 22.48037 v 8.70748 z"
             style="font-size:85.7352px;line-height:1.25;fill:#1a1a1a"
             id="path40828" />
          <path
             d="m 691.10415,390.11664 -9.71219,-14.31711 -9.75406,14.31711 h -12.34955 l 15.94976,-21.4338 -15.1125,-21.0989 h 12.43328 l 9.54474,13.98221 9.41915,-13.98221 h 11.47043 l -14.65201,21.01517 15.4474,21.51753 z"
             style="font-size:85.7352px;line-height:1.25;fill:#1a1a1a"
             id="path40830" />
          <path
             d="m 728.36214,374.66923 q 1.75824,0 3.26531,0.66981 1.50706,0.62794 2.59549,1.75824 1.1303,1.08843 1.75825,2.5955 0.62794,1.50706 0.62794,3.22344 0,1.67452 -0.62794,3.18158 -0.62795,1.4652 -1.75825,2.5955 -1.08843,1.08844 -2.59549,1.71638 -1.50707,0.6698 -3.26531,0.6698 -1.67452,0 -3.13972,-0.6698 -1.4652,-0.62794 -2.55363,-1.71638 -1.08844,-1.1303 -1.71638,-2.5955 -0.62795,-1.50706 -0.62795,-3.18158 0,-1.71638 0.62795,-3.22344 0.62794,-1.50707 1.71638,-2.5955 1.08843,-1.1303 2.55363,-1.75824 1.4652,-0.66981 3.13972,-0.66981 z"
             style="font-weight:bold;font-size:85.7352px;line-height:1.25;font-family:Consolas;-inkscape-font-specification:'Consolas Bold';fill:#d16969"
             id="path40832" />
          <path
             d="m 780.14655,367.13391 h -8.74934 l 1.17216,-12.93563 -10.50758,7.53532 -4.22816,-7.28414 11.76348,-5.40032 -11.76348,-5.40031 4.22816,-7.28414 10.50758,7.53532 -1.17216,-12.93564 h 8.74934 l -1.21402,12.93564 10.54945,-7.53532 4.18629,7.28414 -11.72161,5.40031 11.72161,5.40032 -4.18629,7.28414 -10.54945,-7.53532 z"
             style="font-size:85.7352px;line-height:1.25;fill:#2c89a0;fill-opacity:1"
             id="path40834" />
          <path
             d="m 842.94085,352.8168 q 0,4.27002 -1.42334,7.91209 -1.42334,3.60021 -4.22815,6.23757 -2.80481,2.63736 -6.9911,4.10256 -4.18629,1.4652 -9.71219,1.4652 h -5.23287 v 17.58242 h -10.38199 v -54.7148 h 16.03348 q 5.31659,0 9.37729,1.17216 4.10257,1.1303 6.86552,3.34903 2.80481,2.21874 4.22815,5.48404 1.4652,3.22344 1.4652,7.40973 z m -10.80063,0.71167 q 0,-2.17687 -0.71167,-3.93511 -0.6698,-1.8001 -2.09314,-3.05599 -1.38148,-1.25589 -3.51648,-1.92569 -2.13501,-0.66981 -5.06541,-0.66981 h -5.40032 v 20.05232 h 5.73522 q 2.67923,0 4.73051,-0.71166 2.05128,-0.75354 3.43275,-2.13501 1.42334,-1.38148 2.13501,-3.30717 0.75353,-1.92569 0.75353,-4.31188 z"
             style="font-size:85.7352px;line-height:1.25;fill:#1a1a1a"
             id="path40836" />
          <path
             d="m 878.94295,390.11664 -0.25117,-5.56777 q -1.33962,1.42334 -2.80482,2.63737 -1.4652,1.17216 -3.22344,2.05128 -1.75824,0.87912 -3.85138,1.33961 -2.05129,0.50235 -4.5212,0.50235 -3.2653,0 -5.73521,-0.96284 -2.46991,-0.96285 -4.14443,-2.67923 -1.67451,-1.71638 -2.55364,-4.14442 -0.83725,-2.42805 -0.83725,-5.35845 0,-3.01413 1.25588,-5.56777 1.29775,-2.55363 3.89325,-4.3956 2.63736,-1.84197 6.53061,-2.88854 3.93511,-1.04657 9.20984,-1.04657 h 5.56776 v -2.55364 q 0,-1.63265 -0.46049,-2.9304 -0.46049,-1.33961 -1.50706,-2.2606 -1.00471,-0.92098 -2.63736,-1.42334 -1.63266,-0.50235 -4.01884,-0.50235 -3.76766,0 -7.4516,0.87912 -3.64207,0.83726 -7.07482,2.38619 v -8.16327 q 3.05599,-1.21402 7.03296,-2.00942 4.01884,-0.79539 8.33072,-0.79539 4.7305,0 8.1214,0.92098 3.39089,0.87912 5.56776,2.67923 2.21873,1.8001 3.26531,4.52119 1.04657,2.67922 1.04657,6.27943 v 29.05285 z m -1.4652,-18.79644 h -6.23757 q -2.5955,0 -4.3956,0.50236 -1.80011,0.50235 -2.9304,1.38147 -1.1303,0.87912 -1.67452,2.05128 -0.50235,1.1303 -0.50235,2.42805 0,2.5955 1.67451,3.97697 1.67452,1.33962 4.56306,1.33962 2.135,0 4.43746,-1.54893 2.30246,-1.54893 5.06541,-4.43747 z"
             style="font-size:85.7352px;line-height:1.25;fill:#1a1a1a"
             id="path40838" />
          <path
             d="m 926.79226,364.11978 q 0.0837,-2.38618 -0.25118,-4.0607 -0.29304,-1.67451 -1.00471,-2.76295 -0.66981,-1.08843 -1.67451,-1.59079 -1.00471,-0.50235 -2.30246,-0.50235 -2.2606,0 -4.68865,1.88383 -2.38618,1.84197 -5.27472,6.11198 v 26.91784 h -10.46572 v -42.5327 h 9.25169 l 0.37677,6.19571 q 1.04657,-1.63265 2.34432,-2.9304 1.33962,-1.29775 2.93041,-2.21874 1.63265,-0.96284 3.6002,-1.4652 1.96756,-0.50235 4.31188,-0.50235 3.22344,0 5.69335,1.1303 2.51178,1.08843 4.18629,3.2653 1.71638,2.17687 2.51178,5.48404 0.83725,3.26531 0.71167,7.57718 z"
             style="font-size:85.7352px;line-height:1.25;fill:#1a1a1a"
             id="path40840" />
          <path
             d="m 981.6326,377.59963 q 0,3.64208 -1.63265,6.23757 -1.59079,2.55364 -4.27001,4.18629 -2.63737,1.59079 -6.02826,2.30246 -3.34903,0.75353 -6.86551,0.75353 -4.68865,0 -8.45631,-0.46049 -3.76766,-0.41863 -7.11669,-1.25588 v -9.20984 q 3.93511,1.63265 7.82836,2.38619 3.93511,0.71166 7.40973,0.71166 4.01884,0 5.9864,-1.25588 2.00941,-1.29775 2.00941,-3.34903 0,-0.96285 -0.41862,-1.75825 -0.41863,-0.79539 -1.59079,-1.50706 -1.1303,-0.75353 -3.22345,-1.50706 -2.09314,-0.7954 -5.48404,-1.75824 -3.13971,-0.87913 -5.5259,-1.96756 -2.34432,-1.1303 -3.89325,-2.63736 -1.54892,-1.50707 -2.34432,-3.47462 -0.75353,-2.00942 -0.75353,-4.68865 0,-2.5955 1.17216,-4.89795 1.17216,-2.30246 3.47462,-4.01884 2.34432,-1.75824 5.81894,-2.76295 3.47462,-1.00471 8.1214,-1.00471 4.01884,0 7.11669,0.41863 3.09786,0.41863 5.48404,0.92098 v 8.33072 q -3.64207,-1.17217 -6.86551,-1.63266 -3.18158,-0.50235 -6.3213,-0.50235 -3.13971,0 -5.06541,1.1303 -1.88383,1.13029 -1.88383,3.13971 0,0.96285 0.37677,1.71638 0.37677,0.75353 1.4652,1.4652 1.1303,0.71167 3.09785,1.50707 2.00942,0.75353 5.27473,1.67451 3.68393,1.04657 6.19571,2.2606 2.51177,1.17216 4.01883,2.67922 1.54893,1.50707 2.21874,3.43276 0.6698,1.92569 0.6698,4.3956 z"
             style="font-size:85.7352px;line-height:1.25;fill:#1a1a1a"
             id="path40842" />
          <path
             d="m 1030.7378,365.58498 q 0,1.04658 -0.084,2.72109 -0.042,1.67452 -0.1675,3.13972 h -27.9644 q 0,2.80481 0.8373,4.93982 0.8791,2.13501 2.428,3.60021 1.5908,1.42334 3.7677,2.17687 2.2187,0.75353 4.8979,0.75353 3.0979,0 6.6144,-0.46049 3.5583,-0.50236 7.3678,-1.59079 v 8.1214 q -1.6326,0.46049 -3.5583,0.83726 -1.9257,0.37676 -3.9351,0.6698 -2.0094,0.29304 -4.0607,0.41863 -2.0513,0.16745 -3.977,0.16745 -4.8561,0 -8.7075,-1.38147 -3.8514,-1.38148 -6.53059,-4.0607 -2.67923,-2.72109 -4.10256,-6.69806 -1.42334,-3.97698 -1.42334,-9.20984 0,-5.191 1.42334,-9.41915 1.42333,-4.27001 4.01883,-7.28414 2.59552,-3.05599 6.27942,-4.68865 3.7258,-1.67451 8.2889,-1.67451 4.5212,0 7.9958,1.42334 3.4746,1.38147 5.8189,3.89325 2.3443,2.51177 3.5584,5.98639 1.214,3.47462 1.214,7.61904 z m -10.382,-1.4652 q 0.042,-2.51177 -0.6279,-4.35374 -0.6699,-1.88383 -1.842,-3.09785 -1.1303,-1.21402 -2.6792,-1.80011 -1.5071,-0.58608 -3.2653,-0.58608 -3.8514,0 -6.3213,2.5955 -2.47,2.55364 -2.9304,7.24228 z"
             style="font-size:85.7352px;line-height:1.25;fill:#1a1a1a"
             id="path40844" />
          <path
             d="m 1068.2051,364.11978 q 0.084,-2.38618 -0.2512,-4.0607 -0.293,-1.67451 -1.0047,-2.76295 -0.6698,-1.08843 -1.6745,-1.59079 -1.0047,-0.50235 -2.3025,-0.50235 -2.2606,0 -4.6886,1.88383 -2.3862,1.84197 -5.2747,6.11198 v 26.91784 h -10.4658 v -42.5327 h 9.2517 l 0.3768,6.19571 q 1.0466,-1.63265 2.3443,-2.9304 1.3396,-1.29775 2.9304,-2.21874 1.6327,-0.96284 3.6002,-1.4652 1.9676,-0.50235 4.3119,-0.50235 3.2235,0 5.6934,1.1303 2.5117,1.08843 4.1863,3.2653 1.7163,2.17687 2.5117,5.48404 0.8373,3.26531 0.7117,7.57718 z"
             style="font-size:85.7352px;line-height:1.25;fill:#1a1a1a"
             id="path40846" />
          <path
             d="m 1095.081,399.11716 h -9.9215 l 29.2203,-68.15279 h 9.9634 z"
             style="font-size:85.7352px;line-height:1.25;fill:#808080"
             id="path40848" />
        </g>
        <text
           xml:space="preserve"
           style="font-style:normal;font-weight:normal;font-size:40px;line-height:1.25;font-family:sans-serif;fill:#4d4d4d;fill-opacity:1;stroke:none"
           x="253.8"
           y="140.09702"
           id="text2367"><tspan
             sodipodi:role="line"
             id="tspan2365"
             x="253.8"
             y="140.09702" /></text>
      </g>
    </g>
  </g>
</svg>
